<svg width="100" height="100" viewBox="0 0 100 100" fill="none" xmlns="http://www.w3.org/2000/svg">
<g clip-path="url(#clip0_223_1100)">
<path d="M54.7555 27.9318C53.9921 28.7107 53.5644 29.7579 53.5644 30.8485C53.5644 31.9391 53.9921 32.9863 54.7555 33.7652L61.4222 40.4318C62.201 41.1953 63.2482 41.6229 64.3388 41.6229C65.4295 41.6229 66.4766 41.1953 67.2555 40.4318L82.9638 24.7235C85.059 29.3535 85.6934 34.512 84.7824 39.5116C83.8715 44.5112 81.4585 49.1145 77.865 52.708C74.2715 56.3015 69.6682 58.7145 64.6686 59.6254C59.669 60.5364 54.5105 59.902 49.8805 57.8068L21.0888 86.5985C19.4312 88.2561 17.183 89.1873 14.8388 89.1873C12.4946 89.1873 10.2464 88.2561 8.58883 86.5985C6.93123 84.9409 6 82.6927 6 80.3485C6 78.0043 6.93123 75.7561 8.58883 74.0985L37.3805 45.3068C35.2854 40.6769 34.651 35.5184 35.5619 30.5187C36.4729 25.5191 38.8859 20.9158 42.4793 17.3223C46.0728 13.7289 50.6761 11.3159 55.6757 10.4049C60.6754 9.49399 65.8339 10.1284 70.4638 12.2235L54.7972 27.8902L54.7555 27.9318Z" stroke="url(#paint0_linear_223_1100)" stroke-width="5" stroke-linecap="round" stroke-linejoin="round"/>
</g>
<defs>
<linearGradient id="paint0_linear_223_1100" x1="45.5937" y1="10" x2="45.5937" y2="89.1873" gradientUnits="userSpaceOnUse">
<stop stop-color="#E38BB8"/>
<stop offset="1" stop-color="#A162E8"/>
</linearGradient>
<clipPath id="clip0_223_1100">
<rect width="100" height="100" fill="white"/>
</clipPath>
</defs>
</svg>
