<svg width="100" height="100" viewBox="0 0 100 100" fill="none" xmlns="http://www.w3.org/2000/svg">
<g clip-path="url(#clip0_223_1109)">
<path d="M47.2835 64.4627L47.6001 60.0294L51.4626 57.8252C55.1712 55.676 58.5787 53.0447 61.596 50.0002C72.596 38.9961 75.9543 26.0586 71.9085 22.0086C67.8585 17.9669 54.921 21.3169 43.9168 32.3211C40.7501 35.4877 38.096 38.9461 36.0918 42.4544L33.8835 46.3169L29.4543 46.6336C25.8195 46.8885 22.3704 48.3355 19.6418 50.7502C24.8499 53.042 29.585 56.285 33.6043 60.3127C37.6876 64.3961 40.9043 69.1336 43.1668 74.2752C45.5815 71.5466 47.0285 68.0975 47.2835 64.4627ZM34.896 76.2502C34.058 77.3896 33.1345 78.4635 32.1335 79.4627C27.2501 84.346 19.8835 85.8169 10.0335 83.8794C8.10013 74.0336 9.57513 66.6669 14.4501 61.7836C15.4835 60.7586 16.5585 59.8336 17.6668 59.0211C14.251 57.3524 10.6007 56.2143 6.8418 55.6461C8.05195 51.8474 10.1568 48.395 12.9793 45.5794C17.2226 41.3255 22.8608 38.7491 28.8543 38.3252C31.3701 33.9718 34.4525 29.9716 38.021 26.4294C51.8543 12.5961 69.6626 7.98356 77.8001 16.1169C85.9335 24.2544 81.3168 42.0627 67.4876 55.8919C63.9454 59.4603 59.9452 62.5428 55.5918 65.0586C55.1679 71.052 52.5915 76.6902 48.3376 80.9336C45.5244 83.76 42.0713 85.8667 38.271 87.0752C37.7027 83.3163 36.5646 79.666 34.896 76.2502ZM27.7085 66.2086C27.0375 65.536 26.281 64.9546 25.4585 64.4794C23.6585 65.1044 21.5418 66.4794 19.6043 68.4127C18.6918 69.3294 17.5751 72.4086 17.5626 76.3502C21.5043 76.3377 24.596 75.2086 25.5001 74.3086C27.4376 72.3669 28.8126 70.2544 29.4335 68.4544C28.9595 67.6321 28.3795 66.8756 27.7085 66.2044V66.2086ZM60.1168 33.7919C59.7098 33.4097 59.3838 32.9496 59.1581 32.4389C58.9324 31.9283 58.8116 31.3775 58.8029 30.8192C58.7943 30.261 58.8979 29.7067 59.1076 29.1893C59.3173 28.6719 59.6289 28.2019 60.0238 27.8072C60.4188 27.4126 60.889 27.1013 61.4066 26.8919C61.9241 26.6826 62.4785 26.5793 63.0367 26.5884C63.595 26.5975 64.1457 26.7186 64.6562 26.9447C65.1667 27.1708 65.6266 27.4971 66.0085 27.9044C66.7269 28.6967 67.1131 29.735 67.0872 30.8043C67.0612 31.8735 66.6251 32.8919 65.8691 33.6484C65.113 34.405 64.095 34.8419 63.0258 34.8686C61.9565 34.8953 60.918 34.5098 60.1251 33.7919H60.1168Z" fill="url(#paint0_linear_223_1109)"/>
</g>
<defs>
<linearGradient id="paint0_linear_223_1109" x1="44.3282" y1="12.1016" x2="44.3282" y2="87.0752" gradientUnits="userSpaceOnUse">
<stop stop-color="#E38BB8"/>
<stop offset="1" stop-color="#A162E8"/>
</linearGradient>
<clipPath id="clip0_223_1109">
<rect width="100" height="100" fill="white"/>
</clipPath>
</defs>
</svg>
