<svg width="100" height="100" viewBox="0 0 100 100" fill="none" xmlns="http://www.w3.org/2000/svg">
<path fill-rule="evenodd" clip-rule="evenodd" d="M15.5 45.8333C15.5 29.0807 29.0807 15.5 45.8333 15.5C62.586 15.5 76.1667 29.0807 76.1667 45.8333C76.1667 62.586 62.586 76.1667 45.8333 76.1667C29.0807 76.1667 15.5 62.586 15.5 45.8333ZM45.8333 9.5C25.767 9.5 9.5 25.767 9.5 45.8333C9.5 65.8997 25.767 82.1667 45.8333 82.1667C54.9668 82.1667 63.3131 78.7966 69.6966 73.2321L85.7322 89.2678C86.7085 90.2441 88.2915 90.2441 89.2678 89.2678C90.2441 88.2915 90.2441 86.7085 89.2678 85.7322L73.2321 69.6966C78.7966 63.3131 82.1667 54.9668 82.1667 45.8333C82.1667 25.767 65.8997 9.5 45.8333 9.5Z" fill="url(#paint0_linear_223_1066)"/>
<defs>
<linearGradient id="paint0_linear_223_1066" x1="49.75" y1="9.5" x2="49.75" y2="90" gradientUnits="userSpaceOnUse">
<stop stop-color="#E38BB8"/>
<stop offset="1" stop-color="#A162E8"/>
</linearGradient>
</defs>
</svg>
